<svg width="18" height="30" viewBox="0 0 18 30" fill="none" xmlns="http://www.w3.org/2000/svg">
<path d="M9.03725 10.0007C7.64014 10.0007 6.24256 10.0007 4.84546 10.0007C4.55545 10.0007 4.51247 10.067 4.54837 10.4795C4.59607 11.0213 4.77555 11.4833 4.99093 11.9232C5.59219 13.1491 6.32333 14.1556 7.33786 14.6579C7.62786 14.8014 7.93723 14.9094 8.24234 14.9395C9.06559 15.0207 9.89356 15.083 10.6951 14.6981C11.7233 14.2046 12.4596 13.198 13.0689 11.9668C13.3027 11.4941 13.4912 10.9958 13.5313 10.409C13.5554 10.0597 13.5186 10.0013 13.2716 10.0013C11.8603 9.99999 10.449 10.0007 9.03725 10.0007Z" fill="#F9DFFF"/>
<path d="M4.58911 29.3985H4.47994L4.38591 29.3431C4.3555 29.3252 4.33328 29.3116 4.31402 29.2998C4.28806 29.2839 4.26747 29.2713 4.23944 29.2558L4.43333 28.9059L4.24015 29.2562C3.72814 28.9738 3.45445 28.4085 3.58927 27.8352L3.58939 27.8346C3.72349 27.268 4.19027 26.8586 4.79346 26.8509L4.58911 29.3985ZM4.58911 29.3985C7.53619 29.3985 10.4832 29.3985 13.4294 29.4L13.6065 29.4001M4.58911 29.3985L13.6065 29.4001M7.05767 18.7784L7.05757 18.7783C6.81099 18.6346 6.5481 18.5221 6.2598 18.3988C6.20916 18.3772 6.15774 18.3552 6.10549 18.3326L6.10527 18.3325C3.26783 17.1057 1.55385 14.8843 0.835252 11.84L7.05767 18.7784ZM7.05767 18.7784C7.53787 19.0581 7.76769 19.4913 7.76769 20.1032C7.76769 20.6084 7.7678 21.1135 7.76792 21.6186M7.05767 18.7784L7.76792 21.6186M0.9201 7.11182L0.920105 7.1118C1.19052 5.92278 1.49751 4.7374 1.80275 3.55873C1.95736 2.96175 2.11152 2.36648 2.26025 1.77335L0.9201 7.11182ZM0.9201 7.11182C0.570182 8.65079 0.457859 10.2423 0.835238 11.84L0.9201 7.11182ZM3.24408 0.6H3.32608H3.34828H3.37048H3.39268H3.41489H3.43709H3.45929H3.48149H3.50369H3.52589H3.5481H3.5703H3.5925H3.6147H3.6369H3.6591H3.68131H3.70351H3.72571H3.74791H3.77011H3.79231H3.81452H3.83672H3.85892H3.88112H3.90332H3.92552H3.94773H3.96993H3.99213H4.01433H4.03653H4.05873H4.08094H4.10314H4.12534H4.14754H4.16974H4.19194H4.21415H4.23635H4.25855H4.28075H4.30295H4.32515H4.34736H4.36956H4.39176H4.41396H4.43616H4.45836H4.48057H4.50277H4.52497H4.54717H4.56937H4.59157H4.61378H4.63598H4.65818H4.68038H4.70258H4.72478H4.74699H4.76919H4.79139H4.81359H4.83579H4.85799H4.8802H4.9024H4.9246H4.9468H4.969H4.9912H5.01341H5.03561H5.05781H5.08001H5.10221H5.12441H5.14662H5.16882H5.19102H5.21322H5.23542H5.25762H5.27983H5.30203H5.32423H5.34643H5.36863H5.39083H5.41304H5.43524H5.45744H5.47964H5.50184H5.52404H5.54625H5.56845H5.59065H5.61285H5.63505H5.65725H5.67946H5.70166H5.72386H5.74606H5.76826H5.79046H5.81267H5.83487H5.85707H5.87927H5.90147H5.92367H5.94588H5.96808H5.99028H6.01248H6.03468H6.05688H6.07909H6.10129H6.12349H6.14569H6.16789H6.19009H6.2123H6.2345H6.2567H6.2789H6.3011H6.32331H6.34551H6.36771H6.38991H6.41211H6.43431H6.45651H6.47872H6.50092H6.52312H6.54532H6.56752H6.58973H6.61193H6.63413H6.65633H6.67853H6.70073H6.72294H6.74514H6.76734H6.78954H6.81174H6.83394H6.85614H6.87835H6.90055H6.92275H6.94495H6.96715H6.98936H7.01156H7.03376H7.05596H7.07816H7.10036H7.12257H7.14477H7.16697H7.18917H7.21137H7.23357H7.25578H7.27798H7.30018H7.32238H7.34458H7.36678H7.38899H7.41119H7.43339H7.45559H7.47779H7.49999H7.5222H7.5444H7.5666H7.5888H7.611H7.6332H7.65541H7.67761H7.69981H7.72201H7.74421H7.76641H7.78862H7.81082H7.83302H7.85522H7.87742H7.89962H7.92183H7.94403H7.96623H7.98843H8.01063H8.03283H8.05504H8.07724H8.09944H8.12164H8.14384H8.16604H8.18825H8.21045H8.23265H8.25485H8.27705H8.29925H8.32146H8.34366H8.36586H8.38806H8.41026H8.43246H8.45467H8.47687H8.49907H8.52127H8.54347H8.56567H8.58788H8.61008H8.63228H8.65448H8.67668H8.69888H8.72109H8.74329H8.76549H8.78769H8.80989H8.83209H8.8543H8.8765H8.8987H8.9209H8.9431H8.9653H8.98751H9.00971H9.03191H9.05411H9.07631H9.09851H9.12072H9.14292H9.16512H9.18732H9.20952H9.23172H9.25393H9.27613H9.29833H9.32053H9.34273H9.36493H9.38714H9.40934H9.43154H9.45374H9.47594H9.49814H9.52035H9.54255H9.56475H9.58695H9.60915H9.63135H9.65356H9.67576H9.69796H9.72016H9.74236H9.76456H9.78677H9.80897H9.83117H9.85337H9.87557H9.89777H9.91998H9.94218H9.96438H9.98658H10.0088H10.031H10.0532H10.0754H10.0976H10.1198H10.142H10.1642H10.1864H10.2086H10.2308H10.253H10.2752H10.2974H10.3196H10.3418H10.364H10.3862H10.4084H10.4306H10.4528H10.475H10.4972H10.5194H10.5416H10.5638H10.586H10.6082H10.6304H10.6526H10.6748H10.697H10.7192H10.7414H10.7636H10.7858H10.808H10.8302H10.8524H10.8746H10.8968H10.9191H10.9413H10.9635H10.9857H11.0079H11.0301H11.0523H11.0745H11.0967H11.1189H11.1411H11.1633H11.1855H11.2077H11.2299H11.2521H11.2743H11.2965H11.3187H11.3409H11.3631H11.3853H11.4075H11.4297H11.4519H11.4741H11.4963H11.5185H11.5407H11.5629H11.5851H11.6073H11.6295H11.6517H11.6739H11.6961H11.7183H11.7405H11.7627H11.7849H11.8071H11.8293H11.8515H11.8737H11.8959H11.9181H11.9403H11.9625H11.9847H12.0069H12.0291H12.0513H12.0735H12.0957H12.1179H12.1401H12.1623H12.1845H12.2067H12.2289H12.2512H12.2734H12.2956H12.3178H12.34H12.3622H12.3844H12.4066H12.4288H12.451H12.4732H12.4954H12.5176H12.5398H12.562H12.5842H12.6064H12.6286H12.6508H12.673H12.6952H12.7174H12.7396H12.7618H12.784H12.8062H12.8284H12.8506H12.8728H12.895H12.9172H12.9394H12.9616H12.9838H13.006H13.0282H13.0504H13.0726H13.0948H13.117H13.1392H13.1614H13.1836H13.2058H13.228H13.2502H13.2724H13.2946H13.3168H13.339H13.3612H13.3834H13.4056H13.4278H13.45H13.4722H13.4944H13.5166H13.5388H13.5611H13.5833H13.6055H13.6277H13.6499H13.6721H13.6943H13.7165H13.7387H13.7609H13.7831H13.8053H13.8275H13.8497H13.8719H13.8941H13.9163H13.9385H13.9607H13.9829H14.0051H14.0273H14.0495H14.0717H14.0939H14.1161H14.1383H14.1605H14.1827H14.2049H14.2271H14.2493H14.2715H14.2937H14.3159H14.3381H14.3603H14.3825H14.4047H14.4269H14.4491H14.4713H14.4935H14.5157H14.5379H14.5601H14.5823H14.6045H14.6267H14.6489H14.6711H14.6933H14.7752L14.8505 0.632158C15.3851 0.860565 15.6241 1.30368 15.7571 1.75734C16.3342 3.71929 16.875 5.70467 17.2222 7.74892C17.7328 10.7554 17.1656 13.5066 15.2266 15.8869C14.1808 17.1712 12.859 18.0102 11.3509 18.5545M3.24408 0.6L14.4375 27.8742C14.3739 27.563 14.2157 27.2961 13.9644 27.1113C13.7173 26.9295 13.4116 26.8498 13.0871 26.8494C12.906 26.8491 12.7267 26.8495 12.5482 26.8499C12.2194 26.8505 11.8936 26.8512 11.565 26.8479H11.5649C10.8234 26.8407 10.2559 26.2745 10.2531 25.4857C10.2468 23.6635 10.2419 21.8434 10.2552 20.0237L10.2552 20.0236C10.2581 19.6162 10.3767 19.3145 10.5582 19.087C10.7432 18.8551 11.0128 18.6766 11.3509 18.5545M3.24408 0.6L3.16869 0.632264M3.24408 0.6L3.16869 0.632264M11.3509 18.5545L11.2151 18.1783M11.3509 18.5545L11.2151 18.1783M11.2151 18.1783C10.4355 18.4597 9.86225 19.0408 9.85524 20.0208L14.9165 15.6343C13.9243 16.8527 12.6676 17.654 11.2151 18.1783ZM3.16869 0.632264C2.64211 0.857634 2.38159 1.28919 2.26027 1.77329L3.16869 0.632264ZM13.6065 29.4001L13.7107 29.2854M13.6065 29.4001L13.7107 29.2854M13.7107 29.2854C13.962 29.1493 14.1713 28.9657 14.3065 28.731C14.457 28.47 14.499 28.1744 14.4376 27.8744L13.7107 29.2854ZM6.40199 26.8486C6.82792 26.8469 7.16113 26.6969 7.38873 26.4592C7.61757 26.2201 7.76639 25.8641 7.76699 25.4049L6.40199 26.8486ZM6.40199 26.8486C6.19742 26.8495 5.9888 26.8489 5.77863 26.8483M6.40199 26.8486L5.77863 26.8483M5.77863 26.8483C5.45096 26.8474 5.1195 26.8464 4.79368 26.8509L5.77863 26.8483ZM7.76792 21.6186C7.7682 22.8809 7.76849 24.1428 7.76699 25.4049L7.76792 21.6186ZM14.8441 8.69846L14.8441 8.69868C14.8768 8.94656 14.8957 9.19017 14.9163 9.45553C14.9255 9.5738 14.935 9.6964 14.9462 9.82563C14.774 12.6058 13.6536 14.7227 11.1776 15.8747L11.1775 15.8747C8.63038 17.0603 5.63988 16.0153 4.08831 13.3996L4.08824 13.3995C3.16349 11.8418 2.92385 10.153 3.21783 8.33625C3.50184 6.5819 3.95515 4.86764 4.44603 3.14565C7.48845 3.15204 10.5308 3.15064 13.5726 3.14849C14.098 4.99504 14.5971 6.81857 14.8441 8.69846Z" fill="black" stroke="black" stroke-width="0.8"/>
</svg>
