<svg width="31" height="28" viewBox="0 0 31 28" fill="none" xmlns="http://www.w3.org/2000/svg">
<g clip-path="url(#clip0_45_2255)">
<path d="M15.5156 4.22283C15.9932 3.78159 16.4834 3.27509 17.0297 2.84007C18.5656 1.6189 20.3357 0.988113 22.2963 1.21495C25.6804 1.60958 28.0779 3.42735 29.258 6.60613C30.4849 9.91542 29.8043 12.9575 27.3193 15.4589C23.57 19.2249 19.7239 22.8978 15.9183 26.6079C15.6093 26.9093 15.3814 26.9093 15.0723 26.6079C11.2668 22.8978 7.45185 19.197 3.66505 15.4651C1.86686 13.6939 1.0583 11.5002 1.19254 8.99255C1.39858 5.13016 4.38932 1.8333 8.21983 1.26466C10.5643 0.916644 12.6092 1.63443 14.3792 3.17566C14.7726 3.52057 15.1472 3.88413 15.5156 4.22283ZM15.4875 25.6602C15.5375 25.6229 15.5687 25.6011 15.5968 25.5732C19.3024 21.9594 23.0205 18.3549 26.7043 14.7193C28.1622 13.2806 28.8803 11.4846 28.8365 9.44933C28.7772 6.77393 27.6097 4.64542 25.3151 3.21916C23.3702 2.01353 21.2941 1.76183 19.1463 2.68471C17.8445 3.24402 16.833 4.16379 15.9776 5.26999C15.6592 5.68326 15.347 5.67083 15.0099 5.26999C14.6602 4.85361 14.3074 4.43412 13.911 4.06124C12.8402 3.04826 11.5821 2.37087 10.1023 2.20307C7.92325 1.95138 6.03766 2.66295 4.47049 4.14514C1.38922 7.05669 1.36736 11.8606 4.39556 14.8374C6.28428 16.6925 8.18237 18.5382 10.0773 20.3871C11.8693 22.1365 13.6675 23.8859 15.4875 25.6602Z" fill="black"/>
<path d="M16.3429 5.0462C17.3419 4.12022 18.2348 3.2191 19.4336 2.73747C19.9018 2.55103 20.6636 2.37391 21.0788 2.34594C21.3972 2.32419 21.7156 2.3273 22.0341 2.35216C22.1215 2.35837 22.2089 2.3677 22.2932 2.37702C22.3306 2.38012 22.5242 2.4112 22.3182 2.38012C22.4649 2.40188 22.6085 2.42673 22.7552 2.4547C23.314 2.56035 23.8479 2.72193 24.3817 2.91769C24.4223 2.93323 24.5877 3.00469 24.3848 2.91769C24.4473 2.94566 24.5097 2.97362 24.569 3.00159C24.6752 3.0513 24.7813 3.10413 24.8843 3.15695C25.1185 3.27814 25.3495 3.41175 25.5711 3.5578C25.6804 3.62926 25.7865 3.70695 25.8958 3.78463C26.0394 3.88717 25.7584 3.66966 25.8927 3.78152C25.9301 3.8126 25.9707 3.84367 26.0082 3.87474C26.2236 4.05497 26.4265 4.24762 26.6201 4.44959C26.7012 4.53349 26.7793 4.6205 26.8542 4.7075C26.8917 4.751 27.1321 5.05241 26.9884 4.86287C27.1539 5.08038 27.3069 5.30721 27.4505 5.54026C27.5972 5.78263 27.7346 6.02811 27.8563 6.28291C27.9125 6.39788 27.9656 6.51285 28.0155 6.62782C28.0905 6.79872 27.9562 6.47867 28.0249 6.65579C28.0592 6.74279 28.0936 6.8298 28.1248 6.9168C28.3589 7.54759 28.54 8.20323 28.6337 8.86819C28.6087 8.69418 28.6493 9.04531 28.6524 9.09503C28.6649 9.23175 28.6711 9.36847 28.6742 9.5083C28.6836 9.83768 28.6742 10.1639 28.6399 10.4933C28.6368 10.5213 28.6056 10.7574 28.6274 10.6238C28.6462 10.5026 28.6149 10.686 28.6149 10.6953C28.5868 10.8444 28.5587 10.9936 28.5244 11.1427C28.4526 11.441 28.3652 11.7331 28.259 12.019C28.2309 12.0905 28.206 12.1619 28.1748 12.2334C28.2434 12.0687 28.1654 12.249 28.1529 12.2738C28.0842 12.4136 28.0187 12.5566 27.9437 12.6933C27.7939 12.9761 27.6253 13.2495 27.4442 13.5136C27.2444 13.8026 27.2195 13.8337 26.976 14.1164C26.72 14.4116 26.4421 14.6882 26.1643 14.9647C25.0467 16.0865 23.9165 17.1989 22.7864 18.3082C20.4856 20.561 18.1661 22.7952 15.859 25.0418C15.7123 25.1847 15.5656 25.3276 15.4189 25.4706C15.3471 25.542 15.269 25.6104 15.2003 25.685C15.1816 25.7036 15.1629 25.7192 15.1441 25.7378C15.0755 25.7968 15.0692 25.8062 15.1285 25.7658C15.1754 25.918 15.8715 25.5918 15.8965 25.7906C15.8903 25.7533 15.7591 25.6539 15.731 25.629C15.5656 25.4675 15.397 25.3059 15.2316 25.1412C14.6415 24.5632 14.0484 23.9884 13.4583 23.4135C12.3126 22.298 11.1669 21.1825 10.0212 20.0638C8.83799 18.911 7.65794 17.7582 6.47788 16.5992C5.90658 16.0399 5.33528 15.4774 4.7671 14.9181C4.52672 14.682 4.28633 14.4458 4.06156 14.1941C3.95542 14.0729 3.84615 13.9486 3.74938 13.8212C3.83367 13.9331 3.61201 13.6224 3.57767 13.5758C3.39973 13.3179 3.24051 13.0475 3.09379 12.771C3.03135 12.6498 2.97203 12.5286 2.91584 12.4043C2.83155 12.2272 2.96891 12.5441 2.89711 12.3639C2.85965 12.2738 2.82531 12.1837 2.79409 12.0936C2.69419 11.8201 2.61302 11.5405 2.54434 11.2608C2.50688 11.1086 2.47566 10.9563 2.44756 10.8009C2.4382 10.7419 2.42883 10.686 2.41634 10.6269C2.35391 10.2541 2.43195 10.8444 2.39761 10.4654C2.34142 9.8501 2.33205 9.23175 2.39449 8.61339C2.39761 8.58232 2.42571 8.35549 2.40698 8.49532C2.38825 8.63825 2.42259 8.41142 2.42571 8.38035C2.44756 8.25605 2.47254 8.13176 2.49751 8.00747C2.56307 7.70917 2.64736 7.41397 2.74414 7.12499C2.78472 7.00691 2.83155 6.88883 2.87526 6.77386C2.9533 6.55946 2.90023 6.71172 2.8815 6.75522C2.9096 6.68997 2.94082 6.62471 2.96891 6.55946C3.09066 6.30155 3.2249 6.04986 3.37163 5.80749C3.50899 5.58066 3.65884 5.36004 3.81493 5.14253C3.92108 4.99337 3.71191 5.26993 3.82742 5.12388C3.87113 5.06795 3.91796 5.01513 3.96166 4.95919C4.06468 4.83801 4.17083 4.71682 4.28009 4.60185C4.46116 4.4092 4.65471 4.22276 4.85451 4.04875C4.94817 3.96796 5.04494 3.88717 5.1386 3.80949C5.31342 3.66655 5.19479 3.76909 5.15421 3.79706C5.22601 3.74423 5.29781 3.69141 5.36962 3.64169C5.58815 3.48944 5.81604 3.3465 6.05018 3.21599C6.17506 3.14763 6.29993 3.07927 6.43105 3.01712C6.49661 2.98605 6.55904 2.95498 6.6246 2.9239C6.64958 2.91147 6.91181 2.80272 6.78069 2.85554C6.66519 2.90215 6.83064 2.8369 6.84001 2.83379C6.90869 2.80893 6.97425 2.78408 7.04293 2.75922C7.18029 2.71261 7.31765 2.666 7.45501 2.6256C7.73598 2.54481 8.02007 2.47645 8.30728 2.42673C8.37908 2.4143 8.45089 2.40188 8.52581 2.39255C8.46962 2.39877 8.36035 2.40498 8.60386 2.38634C8.75371 2.37391 8.90043 2.36148 9.05028 2.35527C9.40305 2.33973 9.7527 2.35527 10.1023 2.38634C10.1304 2.38945 10.3302 2.42052 10.1523 2.39255C10.2116 2.40188 10.2709 2.4112 10.3302 2.42363C10.4863 2.45159 10.6424 2.48577 10.7985 2.52617C11.0545 2.59142 11.4791 2.73125 11.6227 2.79029C12.0504 2.96741 12.7715 3.39622 13.168 3.69141C13.6394 4.04564 14.2013 4.60185 14.6852 5.05241C15.1504 5.47501 15.884 5.50297 16.3429 5.0462C16.78 4.61118 16.8081 3.82813 16.3429 3.39932C15.1722 2.31487 14.0203 1.28014 12.528 0.655566C11.0514 0.0372107 9.48422 -0.0964036 7.90768 0.142859C5.25723 0.543703 2.89399 2.20922 1.46418 4.44649C-0.0343102 6.79251 -0.405811 9.847 0.458943 12.4882C0.917855 13.8896 1.71081 15.1512 2.74726 16.2015C4.00849 17.4786 5.3103 18.7215 6.59338 19.9768C9.12208 22.4471 11.6227 24.9516 14.1889 27.3816C14.5572 27.7296 15.0068 28.0279 15.5406 27.9999C16.1369 27.972 16.5583 27.6177 16.9673 27.22C17.5885 26.6141 18.2129 26.0081 18.8373 25.4022C20.1016 24.1748 21.3691 22.9474 22.6335 21.7169C23.8978 20.4864 25.159 19.2528 26.4109 18.013C27.566 16.8695 28.7991 15.7633 29.6701 14.3806C31.2685 11.845 31.3809 8.72526 30.2664 5.9815C29.7638 4.7479 29.0895 3.60441 28.1373 2.65978C27.2226 1.74934 26.1175 1.08748 24.9124 0.633815C23.6481 0.158396 22.1839 -0.102618 20.8353 0.0372108C19.2587 0.201898 17.804 0.795395 16.5459 1.74934C15.884 2.25272 15.3002 2.83068 14.6915 3.39622C14.2294 3.82502 14.2544 4.61117 14.6915 5.04309C15.1473 5.50297 15.8778 5.47501 16.3429 5.0462Z" fill="black"/>
<path d="M16.0775 26.667C16.7206 26.176 17.2763 25.567 17.8538 25.0014C18.422 24.4483 18.9933 23.8921 19.5615 23.339C20.7009 22.2297 21.8373 21.1204 22.9736 20.0111C24.1287 18.8831 25.2838 17.7552 26.4358 16.6241C27.4473 15.6298 28.4899 14.6634 29.1299 13.377C30.3225 10.975 30.2788 8.06037 29.1206 5.6522C28.0092 3.34346 25.5398 1.49461 23.0017 1.08134C19.9517 0.58417 17.1108 2.00421 15.2252 4.34713C15.1909 4.39063 15.1253 4.44967 15.1034 4.49938C15.0878 4.51492 15.0753 4.53357 15.0597 4.5491C15.1815 4.45588 15.3282 4.44035 15.4968 4.5056C15.6217 4.5056 15.7465 4.5056 15.8683 4.5056C15.9401 4.56464 15.9463 4.56153 15.8808 4.49938C15.8433 4.42481 15.759 4.35956 15.7028 4.2943C15.4687 4.01775 15.2314 3.7412 14.9786 3.48019C14.4884 2.97369 13.9265 2.52003 13.3302 2.14404C12.1221 1.37964 10.7079 0.997443 9.28119 0.991228C6.50586 0.975691 3.99277 2.50138 2.43809 4.73865C1.05823 6.72733 0.646146 9.31261 1.2393 11.6462C1.54836 12.8612 2.14463 13.9643 2.92198 14.9462C3.35904 15.4962 3.88038 15.9716 4.37988 16.4625C4.94494 17.0156 5.50687 17.5656 6.07193 18.1187C8.36024 20.3498 10.6486 22.5808 12.9369 24.8088C13.5113 25.3681 14.0826 25.9274 14.657 26.4836C15.1097 26.9249 15.8621 26.9311 16.3116 26.4836C16.7549 26.0424 16.7643 25.278 16.3116 24.8368C14.1419 22.7238 11.9753 20.6108 9.80566 18.4947C8.72862 17.4476 7.6547 16.3973 6.58079 15.347C6.07193 14.8498 5.55058 14.362 5.05732 13.8462C4.96679 13.7499 4.87626 13.6535 4.79197 13.5541C4.75763 13.5168 4.54846 13.2527 4.65773 13.3987C4.47978 13.1657 4.31744 12.9202 4.17072 12.6685C4.04272 12.451 3.93033 12.2273 3.82107 11.9973C3.81483 11.988 3.74615 11.8233 3.79297 11.9414C3.84604 12.0688 3.76175 11.8606 3.75239 11.8326C3.70244 11.699 3.65561 11.5654 3.61191 11.4318C3.53698 11.1956 3.47454 10.9595 3.42459 10.7171C3.39962 10.5959 3.37777 10.4747 3.35904 10.3536C3.34967 10.307 3.33718 10.1267 3.35904 10.3505C3.35279 10.2821 3.34343 10.2106 3.33718 10.1423C3.31533 9.8999 3.30596 9.65442 3.30909 9.40894C3.31221 9.26911 3.31533 9.12928 3.32782 8.98945C3.33406 8.92109 3.37464 8.53578 3.3403 8.77816C3.40898 8.27477 3.53698 7.7776 3.7118 7.29907C3.73366 7.24004 3.85541 6.94484 3.77112 7.13439C3.82107 7.01942 3.87414 6.90755 3.93033 6.79569C4.05209 6.55332 4.18633 6.32027 4.33305 6.09344C4.41422 5.97225 4.49851 5.85107 4.5828 5.73299C4.58592 5.72677 4.69831 5.58384 4.62651 5.67706C4.54534 5.7796 4.69207 5.59937 4.7108 5.58073C4.89187 5.36632 5.08854 5.16124 5.29458 4.96548C6.08753 4.21351 6.9679 3.70081 8.04181 3.44911C8.17605 3.41804 8.31029 3.39007 8.44765 3.36832C8.45078 3.36832 8.64433 3.34036 8.52882 3.35589C8.39771 3.37143 8.64433 3.34657 8.67243 3.34346C8.97837 3.31861 9.28743 3.31239 9.59337 3.32793C10.1459 3.35279 10.6049 3.45222 11.2355 3.67595C11.5071 3.77227 12.222 4.17933 12.5342 4.41549C12.9369 4.7169 13.4426 5.23893 13.8266 5.68327C14.3729 6.31716 15.0067 6.95727 15.9401 6.68072C16.6488 6.46942 17.0203 5.78892 17.4979 5.28243C18.3252 4.40927 19.2149 3.80645 20.3919 3.48329C21.5126 3.17256 22.6583 3.25024 23.7572 3.71323C24.2505 3.92142 24.8311 4.27566 25.3057 4.62368C25.1652 4.52114 25.3181 4.633 25.34 4.65164C25.3993 4.69825 25.4555 4.74797 25.5148 4.79458C25.5991 4.86605 25.6834 4.94062 25.7646 5.0152C25.9769 5.21407 26.1767 5.42226 26.364 5.64598C26.3983 5.68638 26.4326 5.72988 26.467 5.77028C26.5825 5.91321 26.3733 5.63977 26.4795 5.78892C26.5513 5.89146 26.6231 5.9909 26.6886 6.09344C26.8322 6.31406 26.9634 6.5471 27.0789 6.78326C27.107 6.83919 27.235 7.13128 27.1569 6.94173C27.2037 7.0567 27.2475 7.17478 27.288 7.29286C27.3817 7.5663 27.4597 7.84596 27.5222 8.12873C27.5503 8.25613 27.5721 8.38353 27.5971 8.50782C27.6002 8.51714 27.6283 8.70047 27.6096 8.57618C27.5877 8.43635 27.619 8.67251 27.6221 8.70358C27.6533 8.99567 27.6689 9.28776 27.672 9.57984C27.6751 9.86572 27.6564 10.1485 27.6314 10.4312C27.6283 10.4592 27.6002 10.6581 27.6283 10.4779C27.619 10.5369 27.6096 10.5959 27.6002 10.655C27.569 10.829 27.5315 11.003 27.4878 11.1739C27.2194 12.2055 26.7136 13.06 25.9737 13.8151C24.9217 14.8871 23.8321 15.925 22.7582 16.9721C20.5885 19.082 18.4189 21.1888 16.2523 23.2986C15.9963 23.5503 15.7372 23.7989 15.4812 24.0506C15.3532 24.1749 15.2252 24.3023 15.0972 24.4266C15.016 24.5074 14.5977 24.8834 14.8943 24.6534C14.3948 25.0356 14.1263 25.654 14.4728 26.2475C14.7632 26.7384 15.5717 27.0523 16.0775 26.667Z" fill="black"/>
<path d="M10.8829 6.00034C10.3413 5.96157 9.76078 6.05103 9.24012 6.19416C8.127 6.49533 7.10663 7.20204 6.56204 8.23378C6.13115 9.05082 5.96957 9.97222 5.99351 10.8906C6.00847 11.4751 6.4992 12.0357 7.11561 12.0089C7.71107 11.982 8.25267 11.5168 8.23771 10.8906C8.23173 10.6044 8.2407 10.3211 8.27661 10.0378C8.26464 10.1362 8.24968 10.2346 8.23771 10.336C8.28559 9.99011 8.36937 9.65316 8.50402 9.33112C8.46512 9.42057 8.42922 9.51003 8.39032 9.59949C8.47709 9.40268 8.57883 9.21482 8.70151 9.03889C8.71348 9.021 8.72845 9.00311 8.74041 8.98522C8.82719 8.86296 8.55789 9.21184 8.63568 9.1194C8.6686 9.08362 8.69852 9.04485 8.73144 9.00907C8.79428 8.93452 8.8631 8.86594 8.93491 8.80332C8.96483 8.77648 8.99775 8.74965 9.02767 8.72281C9.04862 8.7079 9.06657 8.69001 9.08752 8.6751C9.1713 8.60353 8.83916 8.85401 8.93192 8.79437C9.00673 8.74666 9.07854 8.69001 9.15335 8.64528C9.30296 8.55284 9.46155 8.47233 9.62314 8.40375C9.53337 8.44251 9.4436 8.47829 9.35383 8.51706C9.69196 8.37691 10.048 8.28745 10.4101 8.23676C10.3114 8.24869 10.2126 8.2636 10.1109 8.27552C10.3622 8.24272 10.6226 8.21887 10.8769 8.23974C11.4634 8.28447 12.0259 7.69405 11.999 7.12153C11.9781 6.47744 11.5113 6.04805 10.8829 6.00034Z" fill="#DCC7E1"/>
</g>
<defs>
<clipPath id="clip0_45_2255">
<rect width="31" height="28" fill="white"/>
</clipPath>
</defs>
</svg>
