<svg width="31" height="28" viewBox="0 0 31 28" fill="none" xmlns="http://www.w3.org/2000/svg">
<path d="M2.98002 13.2022C3.29018 14.7319 3.59714 16.2616 3.9073 17.7913C4.40292 20.2477 4.89854 22.7009 5.39415 25.1573C5.50926 25.7195 5.62118 26.285 5.73629 26.8472C5.87058 27.5163 6.61241 28 7.27749 28C9.06171 28 10.8491 28 12.6333 28C15.4855 28 18.3345 28 21.1867 28C21.8486 28 22.5073 28 23.1692 28C23.8503 28 24.5473 27.5131 24.7104 26.8472C25.0813 25.3206 25.4554 23.7972 25.8263 22.2706C26.4211 19.8331 27.0158 17.3987 27.6106 14.9612C27.748 14.3958 27.8855 13.8304 28.0262 13.265C28.2213 12.4671 27.7704 11.5248 26.9103 11.3332C26.0885 11.1479 25.1517 11.5751 24.9438 12.4294C24.5729 13.956 24.1988 15.4795 23.8279 17.0061C23.2331 19.4436 22.6384 21.878 22.0437 24.3155C21.9062 24.8809 21.7687 25.4463 21.628 26.0117C22.1428 25.6285 22.6544 25.2421 23.1692 24.8589C21.385 24.8589 19.5976 24.8589 17.8133 24.8589C14.9611 24.8589 12.1122 24.8589 9.25996 24.8589C8.59807 24.8589 7.93938 24.8589 7.27749 24.8589C7.7923 25.2421 8.3039 25.6285 8.8187 26.0117C8.50854 24.4819 8.20158 22.9522 7.89142 21.4225C7.3958 18.9661 6.90019 16.5129 6.40457 14.0565C6.28946 13.4943 6.17755 12.9289 6.06243 12.3666C5.89936 11.5594 4.87615 11.0222 4.09596 11.2704C3.22303 11.5468 2.80416 12.3384 2.98002 13.2022Z" fill="black"/>
<path d="M2.72106 15.8219C4.24628 14.3361 5.7715 12.8504 7.29992 11.3677C9.72044 9.0119 12.141 6.65605 14.5615 4.30021C15.1179 3.75679 15.6774 3.21338 16.2338 2.6731C15.4792 2.6731 14.7278 2.6731 13.9732 2.6731C15.5815 4.13687 17.1899 5.60063 18.795 7.0644C21.369 9.40768 23.9398 11.751 26.5138 14.0942C27.1022 14.6282 27.6905 15.1654 28.2757 15.6994C28.8896 16.2585 29.9384 16.3401 30.5363 15.6994C31.1055 15.0931 31.1918 14.0754 30.5363 13.4786C28.928 12.0148 27.3196 10.5511 25.7145 9.08729C23.1437 6.74086 20.5696 4.39758 17.9988 2.0543C17.4105 1.52031 16.8221 0.983178 16.237 0.449187C15.6007 -0.12878 14.6095 -0.166474 13.9763 0.449187C12.4511 1.93494 10.9259 3.42069 9.39749 4.9033C6.97697 7.25915 4.55644 9.61499 2.13591 11.9708C1.57954 12.5143 1.01998 13.0577 0.463608 13.5979C-0.131132 14.1759 -0.169502 15.247 0.463608 15.8187C1.10311 16.3998 2.08795 16.4375 2.72106 15.8219Z" fill="black"/>
<path d="M14.4995 8.35452C12.9997 9.82786 11.4999 11.3012 10.0026 12.7721C9.79054 12.9804 9.57592 13.1913 9.36383 13.3996C8.89672 13.8585 8.86137 14.6993 9.36383 15.1532C9.86881 15.6071 10.649 15.6443 11.1489 15.1532C12.6487 13.6799 14.1485 12.2065 15.6458 10.7357C15.8579 10.5273 16.0725 10.3165 16.2846 10.1081C16.7517 9.64928 16.7871 8.80843 16.2846 8.35452C15.7796 7.90061 14.9969 7.86341 14.4995 8.35452Z" fill="#DCC7E1"/>
</svg>
