<svg width="101" height="107" viewBox="0 0 101 107" fill="none" xmlns="http://www.w3.org/2000/svg">
<g clip-path="url(#clip0_2_1033)">
<path d="M47.7485 40.4562L47.9754 40.5597V65H53.235V40.5173L53.4909 40.3763L59.0151 45.9153L62.6136 42.3308C59.3715 39.0973 56.0501 35.7793 52.7224 32.4675C51.245 30.9973 49.8453 31.002 48.3687 32.4745C45.1946 35.6385 42.0228 38.804 38.8534 41.9711C38.6862 42.138 38.5308 42.3167 38.4099 42.446L42.149 46.1794L47.7485 40.4562Z" fill="black"/>
<path d="M9 39.9782C9.37524 38.6459 9.62802 37.2533 10.1493 35.9814C12.2099 30.9722 15.9466 27.8548 21.2141 26.6017C21.8343 26.4544 22.0698 26.2169 22.1263 25.6213C22.6562 20.0573 24.6972 15.0849 28.1945 10.7378C32.6047 5.25215 38.293 1.81341 45.2255 0.527402C53.3457 -0.979597 60.7885 0.777393 67.4321 5.60637C72.6132 9.36799 76.0924 14.4125 77.8563 20.5839C78.0691 21.3276 78.438 21.6599 79.1665 21.866C85.8392 23.7468 91.0148 30.0044 91.8611 36.8482C92.8612 44.9466 88.3701 52.571 81.257 55.719C79.1375 56.6555 76.9292 57.2424 74.6126 57.2722C70.9427 57.3192 67.2711 57.2848 63.5439 57.2848V52.1125H64.4341C67.487 52.1125 70.54 52.1258 73.5921 52.1125C79.7985 52.078 84.7912 48.2428 86.3793 42.3096C88.2633 35.2855 83.5477 27.8242 76.3679 26.5468C74.6063 26.2334 73.6612 25.3596 73.2333 23.5932C71.3093 15.6397 66.523 10.0271 58.8879 7.10789C51.1013 4.12994 43.6586 5.17927 36.8595 10.0075C32.0458 13.4227 29.0431 18.1232 27.8028 23.8886C27.4825 25.3776 27.415 26.9254 27.2831 28.4496C27.1064 30.4965 26.3073 31.2951 24.2215 31.4275C23.818 31.4534 23.4169 31.5137 23.0149 31.5608C18.1816 32.1274 14.3012 36.6742 14.3012 41.7634C14.3012 46.8525 18.1839 51.4205 23.0244 51.9511C24.3887 52.1 25.7719 52.1031 27.1473 52.1078C30.6014 52.129 34.0554 52.1149 37.57 52.1149V57.2526C37.325 57.2683 37.1147 57.2926 36.9051 57.2926C32.6361 57.2926 28.3672 57.3192 24.099 57.2824C17.1124 57.2228 10.6807 51.8594 9.3407 45.0195C9.23315 44.471 9.11697 43.9224 9.00471 43.3785L9 39.9782Z" fill="#DCC7E1"/>
</g>
<path d="M3.57175 100.838V91.874H0.331749V89.444H9.69175V91.874H6.45175V100.838H3.57175ZM13.9765 91.982C15.1285 91.982 16.0585 92.102 16.7665 92.342C17.4745 92.582 17.9905 93.026 18.3145 93.674C18.6505 94.31 18.8185 95.234 18.8185 96.446V100.838H16.2085L16.1185 100.01H16.0645C15.8365 100.31 15.4825 100.55 15.0025 100.73C14.5225 100.91 13.8985 101 13.1305 101C11.0545 101 10.0165 100.028 10.0165 98.084C10.0165 97.256 10.2865 96.608 10.8265 96.14C11.3785 95.66 12.2425 95.42 13.4185 95.42H16.0825C15.9985 94.916 15.7825 94.58 15.4345 94.412C15.0865 94.232 14.4925 94.142 13.6525 94.142C13.1245 94.142 12.6025 94.184 12.0865 94.268C11.5825 94.34 11.1385 94.424 10.7545 94.52L10.7005 94.484L10.7185 92.396C10.9585 92.324 11.2645 92.258 11.6365 92.198C12.0085 92.126 12.3985 92.072 12.8065 92.036C13.2265 92 13.6165 91.982 13.9765 91.982ZM13.8685 98.876C14.6125 98.876 15.1705 98.786 15.5425 98.606C15.9145 98.414 16.1065 98.114 16.1185 97.706V97.256H14.0845C13.5565 97.256 13.1845 97.334 12.9685 97.49C12.7645 97.634 12.6625 97.832 12.6625 98.084C12.6625 98.384 12.7705 98.594 12.9865 98.714C13.2025 98.822 13.4965 98.876 13.8685 98.876ZM23.2751 100.838H20.3951V88.724H23.2751V95.78H23.3111L25.5791 92.072H28.7471V92.144L26.0831 96.284V96.356L29.1791 100.838H25.8671L23.3291 96.788L23.2751 96.77V100.838ZM37.4791 100.55C37.1431 100.67 36.6751 100.778 36.0751 100.874C35.4871 100.958 34.7851 101 33.9691 101C32.9371 101 32.0551 100.868 31.3231 100.604C30.6031 100.328 30.0571 99.866 29.6851 99.218C29.3131 98.558 29.1271 97.646 29.1271 96.482C29.1271 94.898 29.4871 93.752 30.2071 93.044C30.9391 92.336 32.0671 91.982 33.5911 91.982C34.6831 91.982 35.5411 92.138 36.1651 92.45C36.8011 92.762 37.2511 93.206 37.5151 93.782C37.7911 94.346 37.9291 95.018 37.9291 95.798C37.9291 96.026 37.9171 96.272 37.8931 96.536C37.8811 96.8 37.8511 97.058 37.8031 97.31L37.7311 97.382H31.8091C31.8931 97.91 32.1391 98.258 32.5471 98.426C32.9671 98.594 33.6451 98.678 34.5811 98.678C35.2051 98.678 35.7211 98.666 36.1291 98.642C36.5491 98.606 36.9751 98.558 37.4071 98.498L37.4791 98.552V100.55ZM35.4271 95.492C35.4271 95.204 35.3791 94.958 35.2831 94.754C35.1991 94.538 35.0251 94.376 34.7611 94.268C34.4971 94.148 34.1071 94.088 33.5911 94.088C32.8351 94.088 32.3371 94.22 32.0971 94.484C31.8691 94.736 31.7551 95.072 31.7551 95.492H35.4271ZM47.1247 100.838H44.2447V89.444H49.3207C50.4607 89.444 51.3727 89.582 52.0567 89.858C52.7407 90.134 53.2327 90.584 53.5327 91.208C53.8327 91.832 53.9827 92.678 53.9827 93.746C53.9827 94.754 53.8327 95.576 53.5327 96.212C53.2327 96.836 52.7407 97.298 52.0567 97.598C51.3727 97.898 50.4607 98.048 49.3207 98.048H47.1247V100.838ZM48.8527 91.802H47.1247V95.69H48.8527C49.7047 95.69 50.2747 95.546 50.5627 95.258C50.8507 94.97 50.9947 94.466 50.9947 93.746C50.9947 93.062 50.8507 92.57 50.5627 92.27C50.2747 91.958 49.7047 91.802 48.8527 91.802ZM57.9243 88.814C57.9603 89.246 57.9783 89.606 57.9783 89.894C57.9783 90.062 57.9723 90.236 57.9603 90.416C57.9603 90.584 57.9483 90.776 57.9243 90.992C57.6723 91.04 57.4263 91.076 57.1863 91.1C56.9463 91.124 56.7063 91.136 56.4663 91.136C56.2383 91.136 56.0043 91.124 55.7643 91.1C55.5363 91.076 55.3023 91.04 55.0623 90.992C55.0383 90.788 55.0203 90.602 55.0083 90.434C54.9963 90.254 54.9903 90.08 54.9903 89.912C54.9903 89.756 54.9963 89.588 55.0083 89.408C55.0203 89.228 55.0383 89.03 55.0623 88.814C55.3023 88.754 55.5423 88.718 55.7823 88.706C56.0343 88.682 56.2803 88.67 56.5203 88.67C56.7483 88.67 56.9763 88.682 57.2043 88.706C57.4443 88.718 57.6843 88.754 57.9243 88.814ZM57.9243 100.838H55.0443V92.072H57.9243V100.838ZM66.4332 98.3V100.64C66.1332 100.76 65.6892 100.85 65.1012 100.91C64.5132 100.97 63.8892 101 63.2292 101C62.2812 101 61.4892 100.868 60.8532 100.604C60.2292 100.34 59.7612 99.884 59.4492 99.236C59.1492 98.588 58.9932 97.688 58.9812 96.536C58.9812 95.348 59.1432 94.424 59.4672 93.764C59.8032 93.104 60.2892 92.642 60.9252 92.378C61.5612 92.114 62.3232 91.982 63.2112 91.982C63.7392 91.982 64.2972 92.018 64.8852 92.09C65.4732 92.162 65.9532 92.258 66.3252 92.378L66.3432 94.79L66.2892 94.826C65.9292 94.754 65.5452 94.7 65.1372 94.664C64.7292 94.628 64.3272 94.61 63.9312 94.61C63.1272 94.61 62.5692 94.76 62.2572 95.06C61.9452 95.36 61.7892 95.864 61.7892 96.572C61.7892 97.112 61.8552 97.514 61.9872 97.778C62.1192 98.042 62.3412 98.216 62.6532 98.3C62.9652 98.384 63.3912 98.426 63.9312 98.426C64.3512 98.426 64.7532 98.408 65.1372 98.372C65.5212 98.336 65.9292 98.294 66.3612 98.246L66.4332 98.3ZM67.9227 98.21V94.43H66.8427V92.09H68.1927L68.7327 89.948H70.8027V92.09H72.7647V94.43H70.8027V97.58C70.8027 97.916 70.8447 98.15 70.9287 98.282C71.0127 98.402 71.2047 98.462 71.5047 98.462C71.6967 98.462 71.9007 98.456 72.1167 98.444C72.3327 98.42 72.5487 98.396 72.7647 98.372L72.8187 98.408V100.748C72.2427 100.916 71.4807 101 70.5327 101C69.5847 101 68.9127 100.784 68.5167 100.352C68.1207 99.92 67.9227 99.206 67.9227 98.21ZM77.014 101C75.91 101 75.124 100.706 74.656 100.118C74.188 99.53 73.954 98.69 73.954 97.598V92.072H76.834L76.852 96.896C76.852 97.436 76.948 97.82 77.14 98.048C77.332 98.264 77.722 98.372 78.31 98.372C78.874 98.372 79.252 98.276 79.444 98.084C79.648 97.88 79.756 97.538 79.768 97.058V92.072H82.648V100.838H79.912L79.768 99.848H79.714C79.558 100.196 79.24 100.478 78.76 100.694C78.28 100.898 77.698 101 77.014 101ZM87.3779 100.838H84.4979V92.072H86.8379L87.0719 93.872H87.1259C87.2339 93.2 87.4919 92.72 87.8999 92.432C88.3079 92.132 88.9139 91.982 89.7179 91.982C90.0419 91.982 90.3359 92 90.5999 92.036C90.8639 92.06 91.0859 92.084 91.2659 92.108V94.916L91.2299 94.952C91.0379 94.904 90.8159 94.862 90.5639 94.826C90.3239 94.79 90.0479 94.772 89.7359 94.772C89.2919 94.772 88.8899 94.844 88.5299 94.988C88.1819 95.132 87.9059 95.414 87.7019 95.834C87.5099 96.242 87.4139 96.854 87.4139 97.67L87.3779 100.838ZM99.9471 100.55C99.6111 100.67 99.1431 100.778 98.5431 100.874C97.9551 100.958 97.2531 101 96.4371 101C95.4051 101 94.5231 100.868 93.7911 100.604C93.0711 100.328 92.5251 99.866 92.1531 99.218C91.7811 98.558 91.5951 97.646 91.5951 96.482C91.5951 94.898 91.9551 93.752 92.6751 93.044C93.4071 92.336 94.5351 91.982 96.0591 91.982C97.1511 91.982 98.0091 92.138 98.6331 92.45C99.2691 92.762 99.7191 93.206 99.9831 93.782C100.259 94.346 100.397 95.018 100.397 95.798C100.397 96.026 100.385 96.272 100.361 96.536C100.349 96.8 100.319 97.058 100.271 97.31L100.199 97.382H94.2771C94.3611 97.91 94.6071 98.258 95.0151 98.426C95.4351 98.594 96.1131 98.678 97.0491 98.678C97.6731 98.678 98.1891 98.666 98.5971 98.642C99.0171 98.606 99.4431 98.558 99.8751 98.498L99.9471 98.552V100.55ZM97.8951 95.492C97.8951 95.204 97.8471 94.958 97.7511 94.754C97.6671 94.538 97.4931 94.376 97.2291 94.268C96.9651 94.148 96.5751 94.088 96.0591 94.088C95.3031 94.088 94.8051 94.22 94.5651 94.484C94.3371 94.736 94.2231 95.072 94.2231 95.492H97.8951Z" fill="black"/>
<defs>
<clipPath id="clip0_2_1033">
<rect width="83" height="65" fill="white" transform="translate(9)"/>
</clipPath>
</defs>
</svg>
