<svg width="34" height="34" viewBox="0 0 34 34" fill="none" xmlns="http://www.w3.org/2000/svg">
<circle cx="17" cy="17" r="15.75" fill="#F9DFFF" stroke="black" stroke-width="1.5"/>
<path d="M17.2796 11.0128L17.2797 11.0128C18.1971 10.2959 19.2631 9.92003 20.4467 10.0546L20.4469 10.0546C22.4641 10.2858 23.9078 11.3574 24.6122 13.2269C24.9772 14.1945 25.0609 15.1304 24.8636 16.0113C24.6662 16.8919 24.1902 17.7074 23.4517 18.4379L23.4516 18.4381C21.9244 19.9457 20.369 21.4276 18.8146 22.9087C18.1523 23.5397 17.4902 24.1705 16.8306 24.8031L16.8305 24.8031C16.7316 24.8979 16.6176 24.9738 16.4811 24.9738C16.3446 24.9738 16.2307 24.8979 16.1317 24.8031L16.1317 24.8031C15.5366 24.2324 14.941 23.6621 14.3454 23.0918C12.7301 21.5453 11.1147 19.9986 9.50811 18.4426L17.2796 11.0128ZM17.2796 11.0128C17.0514 11.1913 16.8367 11.3933 16.6355 11.5826C16.5871 11.6281 16.5395 11.6728 16.4927 11.7163C16.4668 11.6925 16.4407 11.6685 16.4144 11.6443C16.2587 11.5008 16.0968 11.3516 15.9311 11.2088L15.9307 11.2085C14.8741 10.3044 13.6444 9.87803 12.2353 10.0836L12.2353 10.0836M17.2796 11.0128L12.2353 10.0836M12.2353 10.0836C9.94408 10.4181 8.1507 12.3566 8.02711 14.6335C7.94688 16.1064 8.43191 17.4008 9.50808 18.4426L12.2353 10.0836ZM16.4824 23.9501C15.95 23.4401 15.4201 22.933 14.8918 22.4274C14.4065 21.9629 13.9226 21.4998 13.4392 21.0368C13.1641 20.773 12.8889 20.5094 12.6138 20.2458C11.7883 19.4549 10.9631 18.6643 10.1408 17.8706C8.44376 16.2311 8.45695 13.5894 10.1822 11.9873L10.1822 11.9873C11.0627 11.1689 12.1148 10.78 13.333 10.9183L13.3333 10.9183C14.1551 11.0099 14.8566 11.3792 15.4591 11.9394L15.4594 11.9397C15.6821 12.1455 15.8813 12.378 16.0852 12.6167L16.0853 12.6168C16.1929 12.7425 16.3246 12.8419 16.4829 12.8435C16.6445 12.845 16.7753 12.7444 16.8792 12.6118C17.3653 11.9941 17.9335 11.4887 18.6593 11.1823L18.6009 11.0441L18.6593 11.1823C19.858 10.6761 21.0128 10.8103 22.1045 11.4754C23.3923 12.2621 24.0438 13.4292 24.0771 14.9055C24.1016 16.0251 23.7012 17.0098 22.8847 17.8016L22.9891 17.9093L22.8847 17.8017C21.2805 19.3576 19.6652 20.9034 18.0497 22.4494C17.5272 22.9495 17.0046 23.4496 16.4824 23.9501Z" fill="black" stroke="black" stroke-width="0.3"/>
<path d="M16.7229 12.1564L16.7224 12.1569C16.6539 12.2189 16.578 12.2441 16.5054 12.2444C16.4258 12.2497 16.3409 12.2258 16.2652 12.1566M16.7229 12.1564L16.8281 11.9308C16.8296 11.907 16.8281 11.8835 16.8239 11.8605C17.3567 11.3733 17.887 10.9061 18.5775 10.629C19.3007 10.3382 20.0674 10.2992 20.8305 10.4428C22.0866 10.6786 23.1814 11.3471 23.8538 12.4251M16.7229 12.1564C16.759 12.1234 16.795 12.0904 16.8308 12.0576C17.3988 11.5373 17.9304 11.0503 18.6333 10.7682L18.6334 10.7682C19.3257 10.4898 20.0627 10.451 20.8027 10.5902L20.8028 10.5903C22.0237 10.8195 23.0793 11.4669 23.7265 12.5043L23.8538 12.4251M16.7229 12.1564L23.7266 12.5045M16.2652 12.1566C16.2651 12.1565 16.265 12.1564 16.2648 12.1563L16.269 12.1517C16.2662 12.1492 16.2634 12.1466 16.2607 12.144C16.207 12.0917 16.1648 12.0176 16.159 11.9314C16.1574 11.907 16.1588 11.8829 16.1632 11.8593C15.928 11.6421 15.6922 11.4247 15.4345 11.2318M16.2652 12.1566C16.1966 12.0943 16.1291 12.032 16.0621 11.9702C15.8265 11.7527 15.597 11.5408 15.3446 11.3519M16.2652 12.1566C16.2652 12.1566 16.2653 12.1567 16.2653 12.1567L16.2695 12.1521L15.3446 11.3519M15.4345 11.2318C14.2165 10.3205 12.6522 10.1184 11.233 10.6928M15.4345 11.2318L15.3446 11.3519M15.4345 11.2318L15.3446 11.3519M11.233 10.6928C10.0077 11.1893 9.0271 12.2177 8.59933 13.4446C8.13351 14.7833 8.31839 16.3258 9.13223 17.4996C9.4983 18.0259 9.98424 18.4754 10.4618 18.9171C10.6085 19.0528 10.7544 19.1878 10.8958 19.324C11.581 19.9854 12.2661 20.6432 12.9531 21.301C13.6183 21.9393 14.2835 22.5758 14.9487 23.2123C15.062 23.3208 15.1755 23.4293 15.2891 23.5378C15.5189 23.7575 15.749 23.9774 15.9783 24.1981C15.9979 24.217 16.0263 24.2482 16.0601 24.2856C16.1917 24.4305 16.4067 24.6674 16.522 24.6308C16.5897 24.61 16.6662 24.5236 16.7286 24.4531C16.7514 24.4273 16.7723 24.4037 16.7903 24.3861L17.0459 24.1414C17.5817 23.6286 18.1186 23.117 18.6556 22.6054C19.461 21.8379 20.2664 21.0705 21.0679 20.2992C21.7241 19.6662 22.3802 19.0315 23.0291 18.3914C23.5928 17.8347 24.0931 17.2372 24.374 16.4942C24.8834 15.1538 24.6024 13.629 23.8538 12.4251M11.233 10.6928L11.2893 10.8319M11.233 10.6928L11.2893 10.8319M23.8538 12.4251L23.7266 12.5045M16.0743 24.7921L15.972 24.9018C16.0895 25.0115 16.2685 25.1677 16.5148 25.1528L16.515 25.1528C16.6546 25.1441 16.7679 25.0833 16.8582 25.0157C16.9288 24.9629 16.9944 24.8983 17.0486 24.845C17.0612 24.8326 17.0733 24.8208 17.0846 24.8098C17.4451 24.4643 17.8074 24.1187 18.1699 23.773L18.1699 23.773C18.4123 23.5417 18.655 23.3104 18.8978 23.0789C19.3899 22.6098 19.8824 22.1403 20.3741 21.67C21.1083 20.9677 21.841 20.2635 22.5682 19.5556L22.5683 19.5555C22.6786 19.448 22.7914 19.3404 22.9052 19.2318C23.4403 18.7215 23.9968 18.1907 24.4043 17.5538C25.2975 16.1605 25.3295 14.489 24.712 12.9989C24.1827 11.7139 23.2072 10.6974 21.8668 10.2029C21.1526 9.93794 20.3372 9.79256 19.5646 9.87161C18.7086 9.95813 17.9219 10.3056 17.2492 10.8124L17.2492 10.8124C16.9839 11.0125 16.74 11.2407 16.503 11.4624C16.4988 11.4664 16.4945 11.4703 16.4903 11.4743C15.9343 10.9744 15.3556 10.4918 14.6232 10.1923C13.8492 9.87445 13.0097 9.79264 12.1861 9.91502C10.7261 10.1308 9.4258 11.004 8.63855 12.2139L8.63849 12.2139C7.81035 13.4885 7.6108 15.1212 8.08908 16.5559C8.33647 17.2983 8.77044 17.9651 9.32534 18.5189L9.32549 18.519C9.84376 19.0348 10.3744 19.5414 10.9034 20.0463C11.123 20.256 11.3424 20.4654 11.5604 20.6751L11.5605 20.6751C12.0114 21.1081 12.4612 21.5432 12.9112 21.9786C13.9247 22.9591 14.9396 23.9411 15.9721 24.9019L16.0743 24.7921ZM16.0743 24.7921C15.0429 23.8323 14.0297 22.852 13.0167 21.872C12.5664 21.4363 12.1162 21.0007 11.6644 20.5669L18.0663 23.6645C17.7038 24.0102 17.3413 24.356 16.9806 24.7017C16.9672 24.7146 16.9537 24.7279 16.94 24.7413C16.8187 24.8605 16.6849 24.992 16.5057 25.0031C16.3299 25.0138 16.194 24.9038 16.0743 24.7921ZM23.7266 12.5045C24.456 13.6777 24.7231 15.1534 24.2338 16.441L24.2337 16.4412C23.9642 17.154 23.482 17.7333 22.9237 18.2847C22.2755 18.9241 21.62 19.5583 20.9639 20.1911C20.1625 20.9623 19.3577 21.7292 18.5526 22.4963C18.0156 23.008 17.4785 23.5198 16.9422 24.033L16.9421 24.0331L16.8143 24.1554L16.6866 24.2777L16.6866 24.2777L16.6854 24.2789C16.6641 24.2997 16.641 24.3257 16.6208 24.3486L16.6166 24.3533C16.5964 24.3761 16.577 24.398 16.5571 24.4189C16.5358 24.4412 16.5169 24.4591 16.5006 24.4721C16.4964 24.4754 16.4928 24.478 16.4898 24.4801C16.4846 24.4775 16.4775 24.4738 16.4685 24.4681C16.4318 24.4454 16.3865 24.4073 16.3361 24.3585C16.2868 24.3108 16.2381 24.2583 16.1943 24.2101C16.1872 24.2023 16.18 24.1944 16.1729 24.1866C16.1391 24.1494 16.1061 24.1129 16.0823 24.0901C15.8528 23.8692 15.6224 23.6489 15.3924 23.4291C15.2789 23.3206 15.1655 23.2123 15.0525 23.104L15.0524 23.104C14.3872 22.4674 13.7221 21.831 13.057 21.1928L13.0568 21.1926C12.37 20.5349 11.685 19.8773 11 19.2161L10.9999 19.216C10.8534 19.0748 10.7041 18.9367 10.5553 18.7991C10.0804 18.3596 9.61126 17.9255 9.25542 17.414C8.47001 16.2812 8.29035 14.789 8.74097 13.494C9.15435 12.3083 10.1035 11.3123 11.2893 10.8319L23.7266 12.5045ZM11.2893 10.8319C12.6601 10.277 14.1688 10.4722 15.3446 11.3519M11.2893 10.8319L15.3446 11.3519M8.76428 12.2957C7.96131 13.5315 7.76737 15.1166 8.23138 16.5084C8.47064 17.2265 8.89116 17.8737 9.4313 18.4127L8.76428 12.2957Z" fill="black" stroke="black" stroke-width="0.3"/>
<path d="M16.6575 24.4262L16.6572 24.4264C16.5772 24.4863 16.4831 24.506 16.3934 24.4799C16.3405 24.4645 16.2963 24.4353 16.2613 24.3998L16.6575 24.4262ZM16.6575 24.4262C16.9018 24.2424 17.1269 24.0156 17.3406 23.8002C17.4297 23.7103 17.5169 23.6225 17.6026 23.5406L17.6027 23.5405M16.6575 24.4262L17.6027 23.5405M11.0578 18.5031C11.6814 19.1024 12.3047 19.7015 12.9299 20.2989L12.93 20.299C14.1183 21.438 15.3048 22.5753 16.4928 23.7125C16.574 23.6393 16.6541 23.5611 16.7343 23.4801C16.7814 23.4327 16.8291 23.3837 16.8772 23.3343C16.9741 23.2347 17.0726 23.1335 17.1707 23.0399L17.2743 23.1485L17.1705 23.0401C17.4849 22.7392 17.7994 22.4385 18.1138 22.1378C19.0577 21.2351 20.0015 20.3325 20.9422 19.4269L20.9424 19.4267C21.1037 19.2721 21.2654 19.1182 21.4269 18.9643C21.8913 18.5219 22.3548 18.0804 22.8069 17.6277L11.0578 18.5031ZM11.0578 18.5031C10.9693 18.4179 10.8804 18.3342 10.7922 18.2511C10.343 17.8278 9.90909 17.4189 9.60357 16.9084L11.0578 18.5031ZM17.0511 12.6818C17.0484 12.685 17.0457 12.6883 17.043 12.6916C16.9581 12.7948 16.8399 12.9384 16.6521 12.9943C16.4198 13.0642 16.2305 12.9775 16.0883 12.8626C15.9865 12.7803 15.8929 12.6691 15.8183 12.5804C15.7955 12.5533 15.7744 12.5282 15.7554 12.5067L15.7554 12.5067C15.2872 11.9774 14.7485 11.522 14.0902 11.2786C13.4497 11.0426 12.7237 11.0031 12.0569 11.1564L12.0567 11.1564C10.807 11.4424 9.73822 12.4248 9.29817 13.5998C8.89539 14.6847 9.00702 15.9102 9.60352 16.9083L17.0511 12.6818ZM17.0511 12.6818C17.1663 12.5427 17.2795 12.4096 17.4007 12.2824C17.9063 11.757 18.523 11.3632 19.2312 11.1709C20.6215 10.7937 22.1127 11.41 23.0293 12.4835C23.8299 13.4213 24.0872 14.7932 23.7759 15.9737L17.0511 12.6818ZM17.6027 23.5405L18.0985 23.0663L18.5942 22.592L18.4905 22.4836M17.6027 23.5405L18.4905 22.4836M18.4905 22.4836L18.5942 22.592C19.2559 21.9589 19.9157 21.3258 20.5755 20.6929L20.5755 20.6929M18.4905 22.4836L20.5755 20.6929M20.5755 20.6929L20.5759 20.6925C21.2464 20.049 21.917 19.4054 22.5859 18.76L22.5859 18.7599M20.5755 20.6929L22.5859 18.7599M24.1019 16.9662C24.7333 15.7197 24.7077 14.1631 24.0973 12.9176L24.0973 12.9175C23.4792 11.6568 22.1414 10.6728 20.7326 10.4489L20.7326 10.4489C19.0664 10.1846 17.5618 11.02 16.5637 12.2396L16.5636 12.2397C16.5518 12.2542 16.539 12.2713 16.5285 12.2854C16.5255 12.2895 16.5227 12.2933 16.5201 12.2967C16.5068 12.3144 16.496 12.328 16.4859 12.3388C16.4849 12.3399 16.4839 12.3409 16.483 12.3419C16.4773 12.3369 16.4705 12.3305 16.4626 12.3222C16.4476 12.3062 16.4323 12.2876 16.4157 12.2667C16.4128 12.2631 16.4097 12.2592 16.4065 12.2551C16.3936 12.2387 16.3786 12.2197 16.3653 12.2044C16.2294 12.0466 16.0888 11.8856 15.9383 11.7329L15.9382 11.7328C15.6749 11.4661 15.3776 11.2245 15.0551 11.0246C14.4009 10.6171 13.6465 10.4153 12.8777 10.4116L12.8775 10.4116C11.3927 10.4061 10.0368 11.2043 9.20914 12.3757L24.1019 16.9662ZM24.1019 16.9662C23.7678 17.6265 23.2437 18.129 22.7372 18.6146M24.1019 16.9662L22.7372 18.6146M22.5859 18.7599C22.636 18.7116 22.6865 18.6632 22.7372 18.6146M22.5859 18.7599L22.7372 18.6146M15.5762 23.7455C15.7987 23.9589 16.0213 24.1723 16.2445 24.3847L9.20911 12.3757C8.45462 13.4425 8.21483 14.8107 8.54118 16.0639C8.70454 16.6938 9.00835 17.2803 9.41797 17.7871L9.41799 17.7871C9.63023 18.0496 9.87663 18.2842 10.1141 18.5102C10.169 18.5625 10.2234 18.6143 10.2769 18.6659L10.2771 18.6661L11.2595 19.6112L11.2597 19.6114C12.5883 20.8844 13.917 22.1575 15.2456 23.4288C15.3559 23.5343 15.466 23.6399 15.5762 23.7455ZM23.7759 15.9737C23.6111 16.5981 23.2705 17.1622 22.807 17.6276L23.7759 15.9737ZM16.4685 12.3544C16.4685 12.3544 16.4687 12.3543 16.469 12.3542L16.4685 12.3544Z" fill="black" stroke="black" stroke-width="0.3"/>
</svg>
