<svg width="29" height="29" viewBox="0 0 29 29" fill="none" xmlns="http://www.w3.org/2000/svg">
<path d="M27.4233 15.1725L27.4227 15.1766C27.4048 15.3083 27.3882 15.4492 27.371 15.5951C27.3342 15.9073 27.2948 16.2422 27.2342 16.5586L27.2338 16.5606C26.6708 19.4368 25.3241 21.903 23.1616 23.8863C20.0337 26.76 16.3137 27.904 12.1173 27.3791L12.1171 27.3791C10.2768 27.1484 8.56031 26.517 6.98632 25.5376C6.98628 25.5376 6.98625 25.5376 6.98621 25.5377M27.4233 15.1725L26.7431 16.4646C26.1999 19.2397 24.9046 21.6093 22.8236 23.5178C19.8065 26.2899 16.2338 27.3901 12.1793 26.883C10.4145 26.6617 8.76625 26.0563 7.25002 25.1128M27.4233 15.1725C27.493 14.6248 27.5057 14.1081 27.5017 13.7302C27.5 13.5714 27.4954 13.4361 27.4907 13.332L27.5101 13.3125L27.4743 13.0647C27.4534 12.9197 27.4331 12.7704 27.4125 12.6189C27.3692 12.3008 27.3246 11.9727 27.2696 11.6531L27.2695 11.6524C26.8233 9.08002 25.7055 6.82645 23.9512 4.90398C22.0052 2.77049 19.6016 1.39653 16.7819 0.78468L16.7807 0.784437C16.4039 0.703579 16.0022 0.65468 15.629 0.60925C15.4697 0.589858 15.3156 0.571097 15.1709 0.550753L15.1709 0.550779C15.0177 0.529685 14.1548 0.469713 13.245 0.518959L13.245 0.518903L13.2375 0.519416C13.2281 0.520064 13.2132 0.520773 13.1945 0.521661C13.1319 0.524637 13.0268 0.529633 12.9441 0.541171C12.8111 0.558382 12.6691 0.574594 12.5228 0.591295C12.2359 0.624059 11.9324 0.658705 11.6483 0.706468L11.6469 0.706702C9.424 1.08672 7.42164 1.9886 5.66205 3.38972C3.03703 5.47653 1.38666 8.18707 0.737555 11.4811C0.468582 12.8375 0.437583 14.2054 0.596352 15.5726L0.596358 15.5727C0.822425 17.5174 1.43794 19.3264 2.46489 20.997M27.4233 15.1725L2.89162 20.7364M6.98621 25.5377C6.98411 25.5366 6.98291 25.5364 6.98291 25.5364C6.98291 25.5364 6.98301 25.5364 6.98322 25.5364C6.9839 25.5365 6.98502 25.5365 6.98646 25.5363L6.98873 25.5327L6.99174 25.5279L7.25002 25.1128M6.98621 25.5377C6.98682 25.538 6.98751 25.5383 6.98827 25.5388L6.98989 25.5362C6.98996 25.5361 6.99003 25.5361 6.9901 25.5361L6.99011 25.5361L6.99442 25.5343C6.99293 25.5349 6.9915 25.5354 6.99018 25.5357L6.99305 25.531L7.25002 25.1128M6.98621 25.5377C5.4891 26.1459 3.98718 26.7517 2.47848 27.3424L2.47269 27.3447L2.47268 27.3447C2.22876 27.4367 1.86534 27.5295 1.51728 27.4595M7.25002 25.1128C7.11497 25.0298 6.94923 25.0114 6.8019 25.0728C5.30409 25.6814 3.8032 26.2868 2.29618 26.8769C2.0844 26.9568 1.82658 27.0121 1.61479 26.9691M1.51728 27.4595C1.5178 27.4596 1.51833 27.4597 1.51885 27.4598L1.61479 26.9691M1.51728 27.4595C1.5166 27.4593 1.51592 27.4592 1.51525 27.4591L1.61479 26.9691M1.51728 27.4595C1.09658 27.3767 0.776746 27.1093 0.620819 26.7417C0.469508 26.385 0.487723 25.9753 0.637548 25.5982L0.637578 25.5981C1.24253 24.0761 1.85062 22.5569 2.46491 21.0377L2.46634 21.0341L2.46636 21.0341C2.46988 21.0256 2.47239 21.0188 2.47417 21.0135M1.61479 26.9691C1.09608 26.8676 0.881233 26.339 1.10222 25.7828C1.70687 24.2615 2.31459 22.7433 2.92845 21.2251C3.00212 21.0468 2.99598 20.9085 2.89162 20.7364M2.47417 21.0135C2.47834 21.0215 2.47993 21.0258 2.48026 21.0267C2.48028 21.0268 2.48027 21.0268 2.48025 21.0267C2.48006 21.026 2.47853 21.0208 2.47796 21.0126C2.47734 21.0036 2.47843 20.9983 2.47818 20.9996C2.4779 21.001 2.4769 21.0054 2.47417 21.0135ZM2.47417 21.0135C2.4719 21.0091 2.46888 21.0037 2.46489 20.997M2.46489 20.997C2.46516 20.9975 2.46543 20.9979 2.4657 20.9983L2.89162 20.7364M2.46489 20.997C2.46462 20.9966 2.46435 20.9961 2.46408 20.9957L2.89162 20.7364M3.92939 24.4641C4.01432 24.252 4.09869 24.0404 4.18284 23.8291C3.9724 23.9105 3.75996 23.9928 3.54535 24.0779C3.52197 24.1364 3.49856 24.1949 3.47513 24.2534C3.47468 24.2546 3.47423 24.2557 3.47378 24.2568C3.4547 24.3045 3.43559 24.3521 3.41647 24.3998C3.3923 24.457 3.37128 24.5174 3.34326 24.5978C3.33214 24.6297 3.31993 24.6648 3.30598 24.7041L3.92939 24.4641ZM3.92939 24.4641C3.86995 24.4873 3.81055 24.5107 3.75122 24.5341C3.74832 24.5353 3.74543 24.5364 3.74253 24.5376C3.69826 24.5551 3.65403 24.5727 3.60984 24.5903L3.92939 24.4641ZM3.3947 16.3699C2.08618 10.5677 5.78952 4.6972 11.5574 3.41173C16.7382 2.25894 21.8796 4.87651 23.9757 9.74416C24.6596 11.3343 24.9461 12.9962 24.8143 14.7271L24.8142 14.7275C24.4585 19.4549 21.2982 23.3136 16.7303 24.5092L16.7299 24.5093C13.7505 25.2919 10.9213 24.8675 8.30084 23.229L3.3947 16.3699ZM3.3947 16.3699L2.90697 16.4799L3.39472 16.3699C3.39471 16.3699 3.39471 16.3699 3.3947 16.3699ZM8.03576 23.653C10.7736 25.3648 13.7446 25.8104 16.8569 24.9929L8.03576 23.653Z" fill="black" stroke="black"/>
</svg>
