<svg width="22" height="22" viewBox="0 0 22 22" fill="none" xmlns="http://www.w3.org/2000/svg">
<path d="M10.5566 20.75C4.90664 20.75 0.306641 16.15 0.306641 10.5C0.306641 4.85 4.90664 0.25 10.5566 0.25C16.2066 0.25 20.8066 4.85 20.8066 10.5C20.8066 16.15 16.2066 20.75 10.5566 20.75ZM10.5566 1.75C5.72664 1.75 1.80664 5.68 1.80664 10.5C1.80664 15.32 5.72664 19.25 10.5566 19.25C15.3866 19.25 19.3066 15.32 19.3066 10.5C19.3066 5.68 15.3866 1.75 10.5566 1.75Z" fill="#939393"/>
<path d="M21.0563 21.7504C20.8663 21.7504 20.6763 21.6804 20.5263 21.5304L18.5263 19.5304C18.3868 19.3893 18.3086 19.1989 18.3086 19.0004C18.3086 18.802 18.3868 18.6116 18.5263 18.4704C18.8163 18.1804 19.2963 18.1804 19.5863 18.4704L21.5863 20.4704C21.8763 20.7604 21.8763 21.2404 21.5863 21.5304C21.4363 21.6804 21.2463 21.7504 21.0563 21.7504V21.7504Z" fill="#939393"/>
</svg>
