<svg width="28" height="28" viewBox="0 0 28 28" fill="none" xmlns="http://www.w3.org/2000/svg">
<g clip-path="url(#clip0_54_185)">
<path d="M20.212 9.76099C20.1241 13.0883 17.4549 15.8386 13.9922 15.8478C10.6047 15.857 7.76612 13.0791 7.7724 9.76099C7.78181 6.43979 10.5922 3.67417 13.9922 3.67417C17.4549 3.67417 20.1241 6.43979 20.212 9.76099C20.2747 12.1276 24.0386 12.1368 23.9758 9.76099C23.866 5.64786 21.3505 1.99515 17.364 0.567835C13.528 -0.807302 9.02074 0.374456 6.39859 3.43475C3.69488 6.5902 3.24008 11.1822 5.41057 14.7459C7.54029 18.239 11.6931 20.0408 15.7675 19.3655C20.5476 18.5735 23.8535 14.399 23.9758 9.76099C24.0386 7.38827 20.2747 7.38827 20.212 9.76099Z" fill="black"/>
<path d="M3.75133 26.7446C3.80151 26.6126 3.98343 26.232 3.73251 26.7753C3.87365 26.4683 4.02107 26.1645 4.18417 25.8698C4.62642 25.0533 5.14396 24.2675 5.75245 23.5585C7.80689 21.1673 10.6643 19.7461 13.8793 19.7124C17.1005 19.6786 19.9171 21.0445 22.0343 23.3804C22.7118 24.1294 23.2826 24.9643 23.7751 25.8422C23.9445 26.146 24.0919 26.4591 24.2518 26.7692C24.4808 27.2204 24.1107 26.4039 24.2456 26.7477C25.0987 28.9424 28.7371 27.9908 27.8746 25.7685C26.4443 22.0882 23.4269 18.7762 19.7321 17.1954C13.7193 14.6201 6.69028 16.4925 2.65981 21.4773C1.6122 22.7757 0.702597 24.2031 0.125471 25.7685C-0.702579 27.997 2.93269 28.9608 3.75133 26.7446Z" fill="black"/>
<path d="M10.7938 12.0246C11.1484 12.4338 11.6207 12.78 12.0887 13.0462C13.0859 13.6186 14.3036 13.8398 15.415 13.4963C16.2948 13.224 17.0584 12.6883 17.689 12.0239C18.0906 11.6013 18.1398 10.8601 17.6863 10.4444C17.2475 10.0435 16.5377 9.98957 16.1067 10.4416C15.9091 10.6477 15.7031 10.8411 15.478 11.0155C15.5559 10.9545 15.6358 10.8957 15.7157 10.8327C15.4381 11.0428 15.1414 11.2213 14.8194 11.3534C14.9099 11.3178 14.9983 11.28 15.0888 11.2444C14.8889 11.3219 14.6847 11.3827 14.4742 11.4202C14.4531 11.4244 14.4299 11.4265 14.4089 11.4306C14.2615 11.4556 14.6974 11.3995 14.5773 11.4099C14.5289 11.4119 14.4805 11.4181 14.432 11.4201C14.3352 11.4284 14.2383 11.4282 14.1435 11.4217C14.1035 11.4196 14.0614 11.4153 14.0213 11.4131C13.9961 11.4088 13.9708 11.4088 13.9455 11.4045C13.836 11.3959 14.2468 11.4535 14.1393 11.4302C14.0529 11.4111 13.9623 11.4004 13.8781 11.3792C13.7074 11.3388 13.5388 11.2838 13.3765 11.2182C13.4672 11.2542 13.5557 11.2923 13.6463 11.3282C13.3091 11.1886 12.995 11.0006 12.704 10.7811C12.782 10.8423 12.8621 10.9014 12.9423 10.9647C12.7419 10.8107 12.5416 10.6439 12.3769 10.4499C11.995 10.0048 11.1821 10.0245 10.7974 10.4471C10.3581 10.916 10.3844 11.5479 10.7938 12.0246Z" fill="#DCC7E1"/>
</g>
<defs>
<clipPath id="clip0_54_185">
<rect width="28" height="28" fill="white"/>
</clipPath>
</defs>
</svg>
